# xmcd
#
# Track frame offsets:
# 150
# 17715
# 29819
# 41809
# 58026
# 67372
# 79793
# 95510
# 105359
# 130615
# 141034
# 151839
# 158369
# 174586
# 198576
# 215883
# 231187
# 260030
#
# Disc length: 4440 seconds
#
#
# Revision: 2
# Processed by: cddbd v1.5.2PL0 Copyright (c) Steve Scherf et al.
# Submitted via: FreeRIP 2.951 
#
DISCID=02115612
DTITLE=John Williamson - Old Farts In Caravan Parks
DYEAR=2003
DGENRE=Country
TTITLE0=The Vasectomy Song
TTITLE1=Lillee and McEnroe
TTITLE2=Sheik Of Scrubby Creek
TTITLE3=Waratah Rock 'n' Roll Ball
TTITLE4=I Wish Mate, I Wish
TTITLE5=Full Moon Girl
TTITLE6=Dog With No Hair
TTITLE7=My Dad Snores
TTITLE8=Teach Me To Drive, Dad
TTITLE9=The Bowls (Bush Poem)
TTITLE10=I Still Call The Commercial Home
TTITLE11=Drunken Duncan
TTITLE12=Big Bum On The Toilet Seat
TTITLE13=Boogie With M'Baby
TTITLE14=Bill The Cat
TTITLE15=Crocodile Roll
TTITLE16=Old Farts In Caravan Parks
TTITLE17=Data (Copy Control)
EXTD=
EXTT0=
EXTT1=
EXTT2=
EXTT3=
EXTT4=
EXTT5=
EXTT6=
EXTT7=
EXTT8=
EXTT9=
EXTT10=
EXTT11=
EXTT12=
EXTT13=
EXTT14=
EXTT15=
EXTT16=
EXTT17=
PLAYORDER=
